<?xml version="1.0" encoding="UTF-8" standalone="no"?>
<!-- Created with Inkscape (http://www.inkscape.org/) -->
<svg
   xmlns:svg="http://www.w3.org/2000/svg"
   xmlns="http://www.w3.org/2000/svg"
   version="1.0"
   width="921.25983"
   height="293.03149"
   id="svg2">
  <defs
     id="defs4" />
  <g
     transform="translate(-607.00934,-13.388967)"
     id="layer1">
    <g
       transform="translate(17.716533,17.753701)"
       id="g18483">
      <path
         d="M 804.74627,178.09132 C 815.45487,178.09132 818.09087,175.96357 818.09087,164.8483 C 818.09087,154.12688 816.16637,152.21507 805.74947,152.21507 L 785.53267,152.21507 L 785.53267,178.09132 L 804.74627,178.09132 z M 785.53267,190.52768 L 785.53267,215.60363 L 770.96857,215.60363 L 770.96857,139.77871 L 809.69407,139.77871 C 826.27787,140.17886 832.64857,145.32999 832.64857,162.51728 C 832.64857,173.74684 832.04537,181.94036 819.19627,183.85218 L 819.19627,184.26503 C 829.51097,185.16697 832.04537,190.7246 832.04537,201.45237 L 832.04537,215.60363 L 817.48107,215.60363 L 817.48107,201.45237 C 817.48107,195.08809 814.85167,190.62932 807.87117,190.52768 L 785.53267,190.52768"
         style="fill:#7b7678;fill-rule:nonzero;stroke:none"
         id="path18311" />
      <path
         d="M 908.87987,215.60363 L 894.32217,215.60363 L 894.32217,183.2488 L 859.03287,183.2488 L 859.03287,215.60363 L 844.47517,215.60363 L 844.47517,139.77871 L 859.03287,139.77871 L 859.03287,170.80609 L 894.32217,170.80609 L 894.32217,139.77871 L 908.87987,139.77871 L 908.87987,215.60363"
         style="fill:#7b7678;fill-rule:nonzero;stroke:none"
         id="path18315" />
      <path
         d="M 935.77227,171.1173 L 971.25877,171.1173 L 971.25877,183.05188 L 935.77227,183.05188 L 935.77227,203.16732 L 973.48827,203.16732 L 973.48827,215.60363 L 921.22127,215.60363 L 921.22127,139.77871 L 973.18337,139.77871 L 973.18337,152.21507 L 935.77227,152.21507 L 935.77227,171.1173"
         style="fill:#7b7678;fill-rule:nonzero;stroke:none"
         id="path18319" />
      <path
         d="M 984.80667,215.60363 L 999.35167,215.60363 L 999.35167,139.77871 L 984.80667,139.77871 L 984.80667,215.60363 z "
         style="fill:#7b7678;fill-rule:nonzero;stroke:none"
         id="path18321" />
      <path
         d="M 1068.4312,139.77871 L 1082.9893,139.77871 L 1082.9893,215.60363 L 1058.8213,215.60363 L 1026.5684,152.21507 L 1026.0602,152.21507 L 1027.2793,215.60363 L 1012.709,215.60363 L 1012.709,139.77871 L 1036.7876,139.77871 L 1069.2382,203.16732 L 1069.6381,203.16732 L 1068.4312,139.77871"
         style="fill:#7b7678;fill-rule:nonzero;stroke:none"
         id="path18325" />
      <path
         d="M 1147.1399,215.60363 L 1134.0875,215.60363 L 1110.0216,151.99909 L 1109.7294,151.99909 L 1110.9297,215.60363 L 1096.3654,215.60363 L 1096.3654,139.77871 L 1119.7331,139.77871 L 1140.3565,196.09166 L 1140.7692,196.09166 L 1160.9861,139.77871 L 1184.8492,139.77871 L 1184.8492,215.60363 L 1170.2849,215.60363 L 1171.5046,151.68787 L 1171.0025,151.68787 L 1147.1399,215.60363"
         style="fill:#7b7678;fill-rule:nonzero;stroke:none"
         id="path18329" />
      <path
         d="M 1211.729,171.1173 L 1247.2216,171.1173 L 1247.2216,183.05188 L 1211.729,183.05188 L 1211.729,203.16732 L 1249.451,203.16732 L 1249.451,215.60363 L 1197.184,215.60363 L 1197.184,139.77871 L 1249.1461,139.77871 L 1249.1461,152.21507 L 1211.729,152.21507 L 1211.729,171.1173"
         style="fill:#7b7678;fill-rule:nonzero;stroke:none"
         id="path18333" />
      <path
         d="M 1291.1105,215.60363 L 1276.5402,215.60363 L 1276.5402,152.21507 L 1254.3098,152.21507 L 1254.3098,139.77871 L 1313.3602,139.77871 L 1313.3602,152.21507 L 1291.1105,152.21507 L 1291.1105,215.60363"
         style="fill:#7b7678;fill-rule:nonzero;stroke:none"
         id="path18337" />
      <path
         d="M 1343.3968,150.88757 L 1343.1936,150.88757 L 1330.2489,190.21646 L 1356.4431,190.21646 L 1343.3968,150.88757 z M 1326.9147,201.2491 L 1322.1636,215.60363 L 1307.1038,215.60363 L 1332.2817,139.77871 L 1353.7116,139.77871 L 1379.3976,215.60363 L 1364.6362,215.60363 L 1359.6696,201.2491 L 1326.9147,201.2491"
         style="fill:#7b7678;fill-rule:nonzero;stroke:none"
         id="path18341" />
      <path
         d="M 1400.3321,203.16732 L 1435.7169,203.16732 L 1435.7169,215.60363 L 1385.7678,215.60363 L 1385.7678,139.77871 L 1400.3321,139.77871 L 1400.3321,203.16732"
         style="fill:#7b7678;fill-rule:nonzero;stroke:none"
         id="path18345" />
      <path
         d="M 1457.4645,203.16732 L 1492.8361,203.16732 L 1492.8361,215.60363 L 1442.8875,215.60363 L 1442.8875,139.77871 L 1457.4645,139.77871 L 1457.4645,203.16732"
         style="fill:#7b7678;fill-rule:nonzero;stroke:none"
         id="path18349" />
      <path
         d="M 787.20957,13.388967 L 787.20957,87.556156 L 705.30617,124.05224 L 705.30617,227.17621 L 607.00934,270.91306 C 607.00934,270.91306 607.00934,107.68426 607.00934,107.10626 C 607.00934,100.9262 610.25501,92.15469 623.39638,86.323954 C 623.52973,86.254088 787.20957,13.388967 787.20957,13.388967"
         style="fill:#145193;fill-rule:nonzero;stroke:none"
         id="path18353" />
    </g>
  </g>
</svg>
